<svg width="1200" height="980" viewBox="0 0 1200 980" fill="none" xmlns="http://www.w3.org/2000/svg">
  <rect width="1200" height="980" rx="44" fill="#F3EFE8"/>
  <rect x="50" y="54" width="1100" height="872" rx="40" fill="#FFFDF8"/>
  <rect x="94" y="102" width="1012" height="776" rx="34" fill="#F7F2EA"/>
  <path d="M858 190C858 166.804 876.804 148 900 148H956C979.196 148 998 166.804 998 190V716C998 739.196 979.196 758 956 758H900C876.804 758 858 739.196 858 716V190Z" fill="#1E4D57"/>
  <rect x="878" y="185" width="100" height="536" rx="18" fill="#0E2B31"/>
  <rect x="902" y="211" width="52" height="8" rx="4" fill="#7FB6B0"/>
  <rect x="889" y="240" width="78" height="438" rx="16" fill="#F5EEE3"/>
  <rect x="909" y="695" width="38" height="10" rx="5" fill="#7FB6B0"/>
  <circle cx="484" cy="334" r="144" fill="#DDECE8"/>
  <circle cx="484" cy="334" r="112" fill="#4D857C"/>
  <path d="M481.486 256C447.174 256 419 284.174 419 318.486V413H544V318.486C544 284.174 515.826 256 481.486 256ZM485 284C503.778 284 519 299.222 519 318V385H447V318C447 299.222 462.222 284 481 284H485Z" fill="#FFF8EF"/>
  <rect x="313" y="555" width="408" height="204" rx="30" fill="#E0A95C"/>
  <path d="M364 597C364 572.699 383.699 553 408 553H626C650.301 553 670 572.699 670 597V759H364V597Z" fill="#C88734"/>
  <path d="M408 553H626C650.301 553 670 572.699 670 597V615H364V597C364 572.699 383.699 553 408 553Z" fill="#B4721E"/>
  <path d="M460 553C460 514.892 490.892 484 529 484C567.108 484 598 514.892 598 553H567C567 532.565 550.435 516 530 516C509.565 516 493 532.565 493 553H460Z" fill="#6D4127"/>
  <rect x="401" y="625" width="233" height="97" rx="18" fill="#FFF7EE"/>
  <path d="M496 648H543.2C549.273 648 554.2 652.925 554.2 659V671.6C554.2 677.673 549.273 682.6 543.2 682.6H496V705.4C496 711.473 491.075 716.4 485 716.4H472.4C466.327 716.4 461.4 711.473 461.4 705.4V682.6H414.2C408.127 682.6 403.2 677.673 403.2 671.6V659C403.2 652.925 408.127 648 414.2 648H461.4V600.8C461.4 594.727 466.327 589.8 472.4 589.8H485C491.075 589.8 496 594.727 496 600.8V648Z" fill="#D85B3C"/>
  <rect x="195" y="381" width="189" height="128" rx="26" fill="#FFFFFF"/>
  <rect x="222" y="409" width="135" height="18" rx="9" fill="#C8D7D4"/>
  <rect x="222" y="441" width="96" height="14" rx="7" fill="#DFE8E5"/>
  <rect x="222" y="466" width="77" height="14" rx="7" fill="#DFE8E5"/>
  <rect x="190" y="684" width="156" height="118" rx="24" fill="#9FBCB7"/>
  <rect x="214" y="705" width="108" height="16" rx="8" fill="#F7F2EA"/>
  <rect x="214" y="735" width="74" height="14" rx="7" fill="#D7E5E1"/>
  <rect x="755" y="604" width="88" height="128" rx="26" fill="#D85B3C"/>
  <rect x="773" y="624" width="52" height="12" rx="6" fill="#FFF1E6"/>
  <rect x="773" y="648" width="38" height="56" rx="10" fill="#C84425"/>
  <circle cx="826" cy="321" r="45" fill="#E0A95C"/>
  <path d="M824.3 296.9L831.8 312.2L848.7 314.7L836.5 326.6L839.4 343.5L824.3 335.5L809.2 343.5L812.1 326.6L799.9 314.7L816.8 312.2L824.3 296.9Z" fill="#FFF8EF"/>
</svg>
